<mxfile host="app.diagrams.net" modified="2023-09-25T13:29:23.009Z" agent="Mozilla/5.0 (Windows NT 10.0; Win64; x64) AppleWebKit/537.36 (KHTML, like Gecko) Chrome/116.0.0.0 Safari/537.36" etag="6IYormgb8E1T59a7PrhB" version="21.7.5" type="google">
  <diagram name="Sida-1" id="rnBqIGrtlZa6m03sdyxq">
    <mxGraphModel grid="1" page="1" gridSize="10" guides="1" tooltips="1" connect="1" arrows="1" fold="1" pageScale="1" pageWidth="827" pageHeight="1169" math="0" shadow="0">
      <root>
        <mxCell id="0" />
        <mxCell id="1" parent="0" />
        <mxCell id="eKW9c_a5zmDSxQZKaiov-18" style="edgeStyle=orthogonalEdgeStyle;rounded=0;orthogonalLoop=1;jettySize=auto;html=1;entryX=0.5;entryY=0;entryDx=0;entryDy=0;" edge="1" parent="1" source="eKW9c_a5zmDSxQZKaiov-1" target="eKW9c_a5zmDSxQZKaiov-16">
          <mxGeometry relative="1" as="geometry" />
        </mxCell>
        <mxCell id="eKW9c_a5zmDSxQZKaiov-19" style="edgeStyle=orthogonalEdgeStyle;rounded=0;orthogonalLoop=1;jettySize=auto;html=1;entryX=0.5;entryY=0;entryDx=0;entryDy=0;" edge="1" parent="1" source="eKW9c_a5zmDSxQZKaiov-1" target="eKW9c_a5zmDSxQZKaiov-17">
          <mxGeometry relative="1" as="geometry" />
        </mxCell>
        <mxCell id="eKW9c_a5zmDSxQZKaiov-1" value="Start" style="rounded=1;whiteSpace=wrap;html=1;" vertex="1" parent="1">
          <mxGeometry x="300" y="70" width="120" height="60" as="geometry" />
        </mxCell>
        <mxCell id="eKW9c_a5zmDSxQZKaiov-2" value="Slut" style="rounded=1;whiteSpace=wrap;html=1;" vertex="1" parent="1">
          <mxGeometry x="300" y="790" width="120" height="60" as="geometry" />
        </mxCell>
        <mxCell id="eKW9c_a5zmDSxQZKaiov-21" style="edgeStyle=orthogonalEdgeStyle;rounded=0;orthogonalLoop=1;jettySize=auto;html=1;" edge="1" parent="1" source="eKW9c_a5zmDSxQZKaiov-16">
          <mxGeometry relative="1" as="geometry">
            <mxPoint x="360" y="290" as="targetPoint" />
          </mxGeometry>
        </mxCell>
        <mxCell id="eKW9c_a5zmDSxQZKaiov-16" value="Number-1" style="rounded=0;whiteSpace=wrap;html=1;" vertex="1" parent="1">
          <mxGeometry x="210" y="180" width="120" height="60" as="geometry" />
        </mxCell>
        <mxCell id="eKW9c_a5zmDSxQZKaiov-22" style="edgeStyle=orthogonalEdgeStyle;rounded=0;orthogonalLoop=1;jettySize=auto;html=1;" edge="1" parent="1" source="eKW9c_a5zmDSxQZKaiov-17">
          <mxGeometry relative="1" as="geometry">
            <mxPoint x="360" y="290" as="targetPoint" />
          </mxGeometry>
        </mxCell>
        <mxCell id="eKW9c_a5zmDSxQZKaiov-17" value="Number-2" style="rounded=0;whiteSpace=wrap;html=1;" vertex="1" parent="1">
          <mxGeometry x="380" y="180" width="120" height="60" as="geometry" />
        </mxCell>
        <mxCell id="eKW9c_a5zmDSxQZKaiov-48" value="" style="edgeStyle=orthogonalEdgeStyle;rounded=0;orthogonalLoop=1;jettySize=auto;html=1;" edge="1" parent="1" source="eKW9c_a5zmDSxQZKaiov-46" target="eKW9c_a5zmDSxQZKaiov-2">
          <mxGeometry relative="1" as="geometry" />
        </mxCell>
        <mxCell id="eKW9c_a5zmDSxQZKaiov-46" value="Svar&amp;nbsp;" style="rounded=0;whiteSpace=wrap;html=1;" vertex="1" parent="1">
          <mxGeometry x="300" y="690" width="120" height="60" as="geometry" />
        </mxCell>
        <mxCell id="eKW9c_a5zmDSxQZKaiov-55" style="edgeStyle=orthogonalEdgeStyle;rounded=0;orthogonalLoop=1;jettySize=auto;html=1;entryX=0.5;entryY=0;entryDx=0;entryDy=0;entryPerimeter=0;" edge="1" parent="1" source="eKW9c_a5zmDSxQZKaiov-50" target="eKW9c_a5zmDSxQZKaiov-51">
          <mxGeometry relative="1" as="geometry" />
        </mxCell>
        <mxCell id="eKW9c_a5zmDSxQZKaiov-56" style="edgeStyle=orthogonalEdgeStyle;rounded=0;orthogonalLoop=1;jettySize=auto;html=1;" edge="1" parent="1" source="eKW9c_a5zmDSxQZKaiov-50">
          <mxGeometry relative="1" as="geometry">
            <mxPoint x="260" y="360" as="targetPoint" />
          </mxGeometry>
        </mxCell>
        <mxCell id="eKW9c_a5zmDSxQZKaiov-57" style="edgeStyle=orthogonalEdgeStyle;rounded=0;orthogonalLoop=1;jettySize=auto;html=1;" edge="1" parent="1" source="eKW9c_a5zmDSxQZKaiov-50">
          <mxGeometry relative="1" as="geometry">
            <mxPoint x="450" y="360" as="targetPoint" />
          </mxGeometry>
        </mxCell>
        <mxCell id="eKW9c_a5zmDSxQZKaiov-58" style="edgeStyle=orthogonalEdgeStyle;rounded=0;orthogonalLoop=1;jettySize=auto;html=1;entryX=0.572;entryY=-0.008;entryDx=0;entryDy=0;entryPerimeter=0;" edge="1" parent="1" source="eKW9c_a5zmDSxQZKaiov-50" target="eKW9c_a5zmDSxQZKaiov-54">
          <mxGeometry relative="1" as="geometry" />
        </mxCell>
        <mxCell id="eKW9c_a5zmDSxQZKaiov-50" value="V채lj r채knes채tt" style="rounded=0;whiteSpace=wrap;html=1;" vertex="1" parent="1">
          <mxGeometry x="300" y="290" width="120" height="60" as="geometry" />
        </mxCell>
        <mxCell id="eKW9c_a5zmDSxQZKaiov-60" style="edgeStyle=orthogonalEdgeStyle;rounded=0;orthogonalLoop=1;jettySize=auto;html=1;entryX=0;entryY=0.5;entryDx=0;entryDy=0;" edge="1" parent="1" source="eKW9c_a5zmDSxQZKaiov-51" target="eKW9c_a5zmDSxQZKaiov-59">
          <mxGeometry relative="1" as="geometry">
            <Array as="points">
              <mxPoint x="100" y="560" />
            </Array>
          </mxGeometry>
        </mxCell>
        <mxCell id="eKW9c_a5zmDSxQZKaiov-51" value="Plus" style="strokeWidth=2;html=1;shape=mxgraph.flowchart.decision;whiteSpace=wrap;fillColor=#d5e8d4;strokeColor=#82b366;" vertex="1" parent="1">
          <mxGeometry x="50" y="370" width="100" height="100" as="geometry" />
        </mxCell>
        <mxCell id="eKW9c_a5zmDSxQZKaiov-63" style="edgeStyle=orthogonalEdgeStyle;rounded=0;orthogonalLoop=1;jettySize=auto;html=1;entryX=0.5;entryY=0;entryDx=0;entryDy=0;" edge="1" parent="1" source="eKW9c_a5zmDSxQZKaiov-52" target="eKW9c_a5zmDSxQZKaiov-59">
          <mxGeometry relative="1" as="geometry" />
        </mxCell>
        <mxCell id="eKW9c_a5zmDSxQZKaiov-52" value="Minus" style="strokeWidth=2;html=1;shape=mxgraph.flowchart.decision;whiteSpace=wrap;fillColor=#dae8fc;strokeColor=#6c8ebf;" vertex="1" parent="1">
          <mxGeometry x="210" y="370" width="100" height="100" as="geometry" />
        </mxCell>
        <mxCell id="eKW9c_a5zmDSxQZKaiov-64" style="edgeStyle=orthogonalEdgeStyle;rounded=0;orthogonalLoop=1;jettySize=auto;html=1;entryX=0.75;entryY=0;entryDx=0;entryDy=0;" edge="1" parent="1" source="eKW9c_a5zmDSxQZKaiov-53" target="eKW9c_a5zmDSxQZKaiov-59">
          <mxGeometry relative="1" as="geometry" />
        </mxCell>
        <mxCell id="eKW9c_a5zmDSxQZKaiov-53" value="G책nger" style="strokeWidth=2;html=1;shape=mxgraph.flowchart.decision;whiteSpace=wrap;fillColor=#f8cecc;strokeColor=#b85450;" vertex="1" parent="1">
          <mxGeometry x="400" y="370" width="100" height="100" as="geometry" />
        </mxCell>
        <mxCell id="eKW9c_a5zmDSxQZKaiov-62" style="edgeStyle=orthogonalEdgeStyle;rounded=0;orthogonalLoop=1;jettySize=auto;html=1;entryX=1;entryY=0.5;entryDx=0;entryDy=0;" edge="1" parent="1" source="eKW9c_a5zmDSxQZKaiov-54" target="eKW9c_a5zmDSxQZKaiov-59">
          <mxGeometry relative="1" as="geometry">
            <Array as="points">
              <mxPoint x="610" y="560" />
            </Array>
          </mxGeometry>
        </mxCell>
        <mxCell id="eKW9c_a5zmDSxQZKaiov-54" value="Delat" style="strokeWidth=2;html=1;shape=mxgraph.flowchart.decision;whiteSpace=wrap;fillColor=#ffe6cc;strokeColor=#d79b00;" vertex="1" parent="1">
          <mxGeometry x="560" y="370" width="100" height="100" as="geometry" />
        </mxCell>
        <mxCell id="eKW9c_a5zmDSxQZKaiov-65" style="edgeStyle=orthogonalEdgeStyle;rounded=0;orthogonalLoop=1;jettySize=auto;html=1;entryX=0.5;entryY=0;entryDx=0;entryDy=0;" edge="1" parent="1" source="eKW9c_a5zmDSxQZKaiov-59" target="eKW9c_a5zmDSxQZKaiov-46">
          <mxGeometry relative="1" as="geometry" />
        </mxCell>
        <mxCell id="eKW9c_a5zmDSxQZKaiov-59" value="Process" style="rounded=1;whiteSpace=wrap;html=1;absoluteArcSize=1;arcSize=14;strokeWidth=2;" vertex="1" parent="1">
          <mxGeometry x="310" y="510" width="100" height="100" as="geometry" />
        </mxCell>
      </root>
    </mxGraphModel>
  </diagram>
</mxfile>
